<?xml version="1.0" encoding="UTF-8"?>
<svg width="68px" height="318px" viewBox="0 0 68 318" version="1.1" xmlns="http://www.w3.org/2000/svg" xmlns:xlink="http://www.w3.org/1999/xlink">
    <!-- Generator: Sketch 52.3 (67297) - http://www.bohemiancoding.com/sketch -->
    <title>Bottom Hand Gaphic</title>
    <desc>Created with Sketch.</desc>
    <g id="Desktop" stroke="none" stroke-width="1" fill="none" fill-rule="evenodd">
        <g id="MakeUI-Desktop-Landing-Page" transform="translate(-1013.000000, -2611.000000)">
            <g id="Make-Kit" transform="translate(46.000000, 1675.000000)">
                <g id="Bottom-Hand-Gaphic" transform="translate(1000.500000, 1095.500000) rotate(-180.000000) translate(-1000.500000, -1095.500000) translate(968.000000, 937.000000)">
                    <path d="M37.5584919,231 C34.7864919,231 32.5184919,230.02161 32.5184919,228.8258 L32.5184919,0.89712942 C32.5184919,-0.29904314 53.5184919,-0.29904314 53.5184919,0.89712942 L53.5184919,228.8258 C53.5184919,230.02161 51.2504919,231 48.4784919,231 L37.5584919,231 Z" id="Fill-20" fill="#000000"></path>
                    <path d="M53.5184919,270.5 L53.5184919,283.5 C53.5184919,286.25 51.2684919,288.5 48.5184919,288.5 C45.7684919,288.5 43.5184919,286.25 43.5184919,283.5 L43.5184919,274.5 L43.5184919,289.5 C43.5184919,292.25 41.2684919,294.5 38.5184919,294.5 C35.7684919,294.5 33.5184919,292.25 33.5184919,289.5 L33.5184919,278.5 L33.5184919,311.5 C33.5184919,314.25 31.2684919,316.5 28.5184919,316.5 C25.7684919,316.5 23.5184919,314.25 23.5184919,311.5 L23.5184919,278.5 L22.5184919,266 C18.7194919,270.798 9.29649191,279.938 9.29649191,279.938 C7.01249191,282.402 3.79649191,282.07 1.43849191,280.657 C-1.98750809,277.402 1.59849191,274.761 3.01249191,272.402 C3.01249191,272.402 14.0124919,262.402 22.0124919,244.402 C24.0124919,238.402 27.5184919,232.402 28.5184919,230.402 C30.7544919,225.93 59.0124919,224.402 59.5184919,234 C59.5184919,234 65.0124919,249.402 64.0124919,261.402 C64.0124919,265.402 63.5184919,277.5 63.5184919,277.5 C63.5184919,280.25 61.2684919,282.5 58.5184919,282.5 C55.7684919,282.5 53.5184919,280.25 53.5184919,277.5 L53.5184919,270.5 Z" id="Fill-21" stroke="#000000" stroke-width="3" fill="#FFFFFF"></path>
                    <polygon id="Fill-23" fill="#000000" points="18.5184919 230.9997 63.5184919 230.9997 63.5184919 207.9997 18.5184919 207.9997"></polygon>
                </g>
            </g>
        </g>
    </g>
</svg>