<svg id="Layer_1" data-name="Layer 1" xmlns="http://www.w3.org/2000/svg" xmlns:xlink="http://www.w3.org/1999/xlink" viewBox="0 0 71.1 724.8"><defs><style>.cls-1{fill:none;}.cls-2{clip-path:url(#clip-path);}.cls-3{clip-path:url(#clip-path-2);}.cls-4{clip-path:url(#clip-path-3);}.cls-5{fill:#fff;stroke:#000;stroke-miterlimit:10;stroke-width:3px;}</style><clipPath id="clip-path"><path class="cls-1" d="M-638.1-2162.3a16.2,16.2,0,0,0-14.4,8.6,16.2,16.2,0,0,0-14.3-8.6,16.2,16.2,0,0,0-16.2,16v29h3.7v-29a12.3,12.3,0,0,1,10.7-12.2v25.2a16.1,16.1,0,0,0,16.1,16,16.2,16.2,0,0,0,16.2-16v-25.2a12.4,12.4,0,0,1,10.7,12.2v29h3.6v-29A16.1,16.1,0,0,0-638.1-2162.3Zm-15.9,42a12.7,12.7,0,0,1-11-12.4v-25.6a12.7,12.7,0,0,1,11,12.4Zm14-12.4a12.7,12.7,0,0,1-11,12.4v-25.6a12.7,12.7,0,0,1,11-12.4Z"/></clipPath><clipPath id="clip-path-2"><path class="cls-1" d="M-656.1-3287.3a16.2,16.2,0,0,0-14.4,8.6,16.2,16.2,0,0,0-14.3-8.6,16.2,16.2,0,0,0-16.2,16v29h3.7v-29a12.3,12.3,0,0,1,10.7-12.2v25.2a16.1,16.1,0,0,0,16.1,16,16.2,16.2,0,0,0,16.2-16v-25.2a12.4,12.4,0,0,1,10.7,12.2v29h3.6v-29A16.1,16.1,0,0,0-656.1-3287.3Zm-15.9,42a12.7,12.7,0,0,1-11-12.4v-25.6a12.7,12.7,0,0,1,11,12.4Zm14-12.4a12.7,12.7,0,0,1-11,12.4v-25.6a12.7,12.7,0,0,1,11-12.4Z"/></clipPath><clipPath id="clip-path-3"><path class="cls-1" d="M-650.1-1040.2a16.1,16.1,0,0,0-14.4,8.7,16.1,16.1,0,0,0-14.3-8.7,16.2,16.2,0,0,0-16.2,16v29h3.7v-29a12.4,12.4,0,0,1,10.7-12.2v25.2a16,16,0,0,0,16.1,16,16.1,16.1,0,0,0,16.2-16v-25.2a12.5,12.5,0,0,1,10.7,12.2v29h3.6v-29A16.1,16.1,0,0,0-650.1-1040.2Zm-15.9,42a12.7,12.7,0,0,1-11-12.4v-25.6a12.7,12.7,0,0,1,11,12.4Zm14-12.4a12.7,12.7,0,0,1-11,12.4v-25.6a12.7,12.7,0,0,1,11-12.4Z"/></clipPath></defs><title>arm</title><path d="M51,634.8H38a6,6,0,0,1-6-6V-.2H57v629A6,6,0,0,1,51,634.8Z"/><path class="cls-5" d="M57,674.3v13a5,5,0,0,1-5,5h0a5,5,0,0,1-5-5v6a5,5,0,0,1-5,5h0a5,5,0,0,1-5-5v22a5,5,0,0,1-5,5h0a5,5,0,0,1-5-5v-33l-1-12.5c-3.8,4.8-13.2,14-13.2,14-2.3,2.4-5.5,2.1-7.9.7h0c-3.4-3.3.2-5.9,1.6-8.3,0,0,11-10,19-28,2-6,5.5-12,6.5-14,2.3-4.4,30.5-6,31,3.6,0,0,5.5,15.4,4.5,27.4,0,4-.5,16.1-.5,16.1a5,5,0,0,1-5,5h0a5,5,0,0,1-5-5Z"/><rect x="22" y="611.8" width="45" height="23"/></svg>