<svg id="Layer_1" data-name="Layer 1" xmlns="http://www.w3.org/2000/svg" xmlns:xlink="http://www.w3.org/1999/xlink" viewBox="0 0 208 28.5"><defs><style>.cls-1{fill:none;}.cls-2{clip-path:url(#clip-path);}.cls-3{clip-path:url(#clip-path-2);}.cls-4{clip-path:url(#clip-path-3);}.cls-5{clip-path:url(#clip-path-4);}.cls-6{clip-path:url(#clip-path-5);}.cls-7{clip-path:url(#clip-path-6);}.cls-8{fill:#fff;stroke:#000;stroke-miterlimit:10;stroke-width:3px;}</style><clipPath id="clip-path"><path class="cls-1" d="M-1079.2-2176.9a16.2,16.2,0,0,0-14.4,8.6,16.2,16.2,0,0,0-14.3-8.6,16.2,16.2,0,0,0-16.2,16v29h3.7v-29a12.3,12.3,0,0,1,10.7-12.2v25.2a16.1,16.1,0,0,0,16.1,16,16.2,16.2,0,0,0,16.2-16v-25.2a12.4,12.4,0,0,1,10.7,12.2v29h3.6v-29A16.1,16.1,0,0,0-1079.2-2176.9Zm-15.9,42a12.7,12.7,0,0,1-11-12.4v-25.6a12.7,12.7,0,0,1,11,12.4Zm14-12.4a12.7,12.7,0,0,1-11,12.4v-25.6a12.7,12.7,0,0,1,11-12.4Z"/></clipPath><clipPath id="clip-path-2"><path class="cls-1" d="M261.8-2155.9a16.2,16.2,0,0,0-14.4,8.6,16.2,16.2,0,0,0-14.3-8.6,16.2,16.2,0,0,0-16.2,16v29h3.7v-29a12.3,12.3,0,0,1,10.7-12.2v25.2a16.1,16.1,0,0,0,16.1,16,16.2,16.2,0,0,0,16.2-16v-25.2a12.4,12.4,0,0,1,10.7,12.2v29h3.6v-29A16.1,16.1,0,0,0,261.8-2155.9Zm-15.9,42a12.7,12.7,0,0,1-11-12.4v-25.6a12.7,12.7,0,0,1,11,12.4Zm14-12.4a12.7,12.7,0,0,1-11,12.4v-25.6a12.7,12.7,0,0,1,11-12.4Z"/></clipPath><clipPath id="clip-path-3"><path class="cls-1" d="M-1097.2-3301.9a16.2,16.2,0,0,0-14.4,8.6,16.2,16.2,0,0,0-14.3-8.6,16.2,16.2,0,0,0-16.2,16v29h3.7v-29a12.3,12.3,0,0,1,10.7-12.2v25.2a16.1,16.1,0,0,0,16.1,16,16.2,16.2,0,0,0,16.2-16v-25.2a12.4,12.4,0,0,1,10.7,12.2v29h3.6v-29A16.1,16.1,0,0,0-1097.2-3301.9Zm-15.9,42a12.7,12.7,0,0,1-11-12.4v-25.6a12.7,12.7,0,0,1,11,12.4Zm14-12.4a12.7,12.7,0,0,1-11,12.4v-25.6a12.7,12.7,0,0,1,11-12.4Z"/></clipPath><clipPath id="clip-path-4"><path class="cls-1" d="M243.8-3301.9a16.2,16.2,0,0,0-14.4,8.6,16.2,16.2,0,0,0-14.3-8.6,16.2,16.2,0,0,0-16.2,16v29h3.7v-29a12.3,12.3,0,0,1,10.7-12.2v25.2a16.1,16.1,0,0,0,16.1,16,16.2,16.2,0,0,0,16.2-16v-25.2a12.4,12.4,0,0,1,10.7,12.2v29h3.6v-29A16.1,16.1,0,0,0,243.8-3301.9Zm-15.9,42a12.7,12.7,0,0,1-11-12.4v-25.6a12.7,12.7,0,0,1,11,12.4Zm14-12.4a12.7,12.7,0,0,1-11,12.4v-25.6a12.7,12.7,0,0,1,11-12.4Z"/></clipPath><clipPath id="clip-path-5"><path class="cls-1" d="M249.8-1063.8a16.2,16.2,0,0,0-14.4,8.6,16.2,16.2,0,0,0-14.3-8.6,16.2,16.2,0,0,0-16.2,16v29h3.7v-29a12.3,12.3,0,0,1,10.7-12.2v25.2a16,16,0,0,0,16.1,16,16.1,16.1,0,0,0,16.2-16V-1060a12.4,12.4,0,0,1,10.7,12.2v29h3.6v-29A16.1,16.1,0,0,0,249.8-1063.8Zm-15.9,42a12.7,12.7,0,0,1-11-12.4v-25.6a12.7,12.7,0,0,1,11,12.4Zm14-12.4a12.7,12.7,0,0,1-11,12.4v-25.6a12.7,12.7,0,0,1,11-12.4Z"/></clipPath><clipPath id="clip-path-6"><path class="cls-1" d="M-1091.2-1054.8a16.2,16.2,0,0,0-14.4,8.6,16.2,16.2,0,0,0-14.3-8.6,16.2,16.2,0,0,0-16.2,16v29h3.7v-29a12.3,12.3,0,0,1,10.7-12.2v25.2a16,16,0,0,0,16.1,16,16.1,16.1,0,0,0,16.2-16V-1051a12.4,12.4,0,0,1,10.7,12.2v29h3.6v-29A16.1,16.1,0,0,0-1091.2-1054.8Zm-15.9,42a12.7,12.7,0,0,1-11-12.4v-25.6a12.7,12.7,0,0,1,11,12.4Zm14-12.4a12.7,12.7,0,0,1-11,12.4v-25.6a12.7,12.7,0,0,1,11-12.4Z"/></clipPath></defs><title>carousel</title><polygon class="cls-8" points="205 13.9 185.6 2.7 185.6 25.1 205 13.9"/><polygon class="cls-8" points="3 14.5 22.4 25.7 22.4 3.3 3 14.5"/><rect class="cls-8" x="145.1" y="1.5" width="23" height="25.45"/><rect class="cls-8" x="110" y="1.5" width="23" height="25.45"/><rect class="cls-8" x="39.9" y="1.5" width="23" height="25.45"/><rect class="cls-8" x="75" y="1.5" width="23" height="25.45"/></svg>