<svg id="Layer_1" data-name="Layer 1" xmlns="http://www.w3.org/2000/svg" xmlns:xlink="http://www.w3.org/1999/xlink" viewBox="0 0 9.2 7.1"><defs><style>.cls-1,.cls-5{fill:none;}.cls-2{clip-path:url(#clip-path);}.cls-3{clip-path:url(#clip-path-2);}.cls-4{clip-path:url(#clip-path-3);}.cls-5{stroke:#000;stroke-miterlimit:10;stroke-width:3px;}</style><clipPath id="clip-path"><path class="cls-1" d="M-605.6-2042.2a16.2,16.2,0,0,0-14.3,8.6,16.2,16.2,0,0,0-14.3-8.6,16.2,16.2,0,0,0-16.2,16v29h3.7v-29a12.3,12.3,0,0,1,10.6-12.2v25.2a16.2,16.2,0,0,0,16.2,16,16.2,16.2,0,0,0,16.2-16v-25.2a12.4,12.4,0,0,1,10.7,12.2v29h3.6v-29A16.1,16.1,0,0,0-605.6-2042.2Zm-15.8,42a12.7,12.7,0,0,1-11-12.4v-25.6a12.7,12.7,0,0,1,11,12.4Zm14-12.4a12.7,12.7,0,0,1-11,12.4v-25.6a12.7,12.7,0,0,1,11-12.4Z"/></clipPath><clipPath id="clip-path-2"><path class="cls-1" d="M-623.6-3167.2a16.2,16.2,0,0,0-14.3,8.6,16.2,16.2,0,0,0-14.3-8.6,16.2,16.2,0,0,0-16.2,16v29h3.7v-29a12.3,12.3,0,0,1,10.6-12.2v25.2a16.2,16.2,0,0,0,16.2,16,16.2,16.2,0,0,0,16.2-16v-25.2a12.4,12.4,0,0,1,10.7,12.2v29h3.6v-29A16.1,16.1,0,0,0-623.6-3167.2Zm-15.8,42a12.7,12.7,0,0,1-11-12.4v-25.6a12.7,12.7,0,0,1,11,12.4Zm14-12.4a12.7,12.7,0,0,1-11,12.4v-25.6a12.7,12.7,0,0,1,11-12.4Z"/></clipPath><clipPath id="clip-path-3"><path class="cls-1" d="M-617.6-920.1a16.1,16.1,0,0,0-14.3,8.7,16.1,16.1,0,0,0-14.3-8.7,16.2,16.2,0,0,0-16.2,16v29h3.7v-29a12.4,12.4,0,0,1,10.6-12.2v25.2a16.1,16.1,0,0,0,16.2,16,16.1,16.1,0,0,0,16.2-16v-25.2A12.5,12.5,0,0,1-605-904.1v29h3.6v-29A16.1,16.1,0,0,0-617.6-920.1Zm-15.8,42a12.7,12.7,0,0,1-11-12.4v-25.6a12.7,12.7,0,0,1,11,12.4Zm14-12.4a12.7,12.7,0,0,1-11,12.4v-25.6a12.7,12.7,0,0,1,11-12.4Z"/></clipPath></defs><title>chevron-down</title><polyline class="cls-5" points="1.1 1 4.6 4.9 8.1 1"/></svg>