<svg id="Layer_1" data-name="Layer 1" xmlns="http://www.w3.org/2000/svg" xmlns:xlink="http://www.w3.org/1999/xlink" viewBox="0 0 14 14"><defs><style>.cls-1{fill:none;}.cls-2{clip-path:url(#clip-path);}.cls-3{clip-path:url(#clip-path-2);}.cls-4{clip-path:url(#clip-path-3);}</style><clipPath id="clip-path"><path class="cls-1" d="M-592.7-2101.6A16.2,16.2,0,0,0-607-2093a16.2,16.2,0,0,0-14.3-8.6,16.2,16.2,0,0,0-16.2,16v29h3.6v-29a12.6,12.6,0,0,1,10.7-12.3v25.3a16.2,16.2,0,0,0,16.2,16,16.2,16.2,0,0,0,16.2-16v-25.3a12.6,12.6,0,0,1,10.7,12.3v29h3.6v-29A16.2,16.2,0,0,0-592.7-2101.6Zm-15.8,42a12.7,12.7,0,0,1-11-12.4v-25.6a12.7,12.7,0,0,1,11,12.4Zm14-12.4a12.7,12.7,0,0,1-11,12.4v-25.6a12.7,12.7,0,0,1,11-12.4Z"/></clipPath><clipPath id="clip-path-2"><path class="cls-1" d="M-610.7-3226.6A16.2,16.2,0,0,0-625-3218a16.2,16.2,0,0,0-14.3-8.6,16.2,16.2,0,0,0-16.2,16v29h3.6v-29a12.6,12.6,0,0,1,10.7-12.3v25.3a16.2,16.2,0,0,0,16.2,16,16.2,16.2,0,0,0,16.2-16v-25.3a12.6,12.6,0,0,1,10.7,12.3v29h3.6v-29A16.2,16.2,0,0,0-610.7-3226.6Zm-15.8,42a12.7,12.7,0,0,1-11-12.4v-25.6a12.7,12.7,0,0,1,11,12.4Zm14-12.4a12.7,12.7,0,0,1-11,12.4v-25.6a12.7,12.7,0,0,1,11-12.4Z"/></clipPath><clipPath id="clip-path-3"><path class="cls-1" d="M-604.7-979.5a16.2,16.2,0,0,0-14.3,8.6,16.2,16.2,0,0,0-14.3-8.6,16.2,16.2,0,0,0-16.2,16v29h3.6v-29a12.6,12.6,0,0,1,10.7-12.3v25.3a16.2,16.2,0,0,0,16.2,16,16.2,16.2,0,0,0,16.2-16v-25.3a12.6,12.6,0,0,1,10.7,12.3v29h3.6v-29A16.2,16.2,0,0,0-604.7-979.5Zm-15.8,42a12.7,12.7,0,0,1-11-12.4v-25.6a12.7,12.7,0,0,1,11,12.4Zm14-12.4a12.7,12.7,0,0,1-11,12.4v-25.6a12.7,12.7,0,0,1,11-12.4Z"/></clipPath></defs><title>circle-black</title><circle cx="7" cy="7" r="7"/></svg>