<?xml version="1.0" encoding="UTF-8"?>
<svg width="264px" height="285px" viewBox="0 0 264 285" version="1.1" xmlns="http://www.w3.org/2000/svg" xmlns:xlink="http://www.w3.org/1999/xlink">
    <!-- Generator: Sketch 52.3 (67297) - http://www.bohemiancoding.com/sketch -->
    <title>Ecommer Icon</title>
    <desc>Created with Sketch.</desc>
    <g id="Desktop" stroke="none" stroke-width="1" fill="none" fill-rule="evenodd">
        <g id="Landing-Page" transform="translate(0.000000, -1944.000000)">
            <rect fill="#FFFFFF" x="0" y="0" width="1280" height="4935"></rect>
            <g id="Make-Kit" transform="translate(44.000000, 1675.000000)">
                <g id="Themes" transform="translate(2.000000, 259.000000)">
                    <g id="Theme-One---E-commerce" transform="translate(0.000000, 76.000000)">
                        <g id="Ecommer-Icon" transform="translate(32.000000, 35.000000)">
                            <g id="Group-20" transform="translate(1.000000, 1.000000)">
                                <polygon id="Fill-1" fill="#FFFFFF" points="0.5 80.5873 82.602 80.5873 82.602 0.4993 0.5 0.4993"></polygon>
                                <g id="Group-19" transform="translate(0.000000, 0.087300)">
                                    <polygon id="Stroke-2" stroke="#000000" stroke-width="3" points="0.5 80.5 82.602 80.5 82.602 0.412 0.5 0.412"></polygon>
                                    <path d="M0.5,17.5384 L82.602,17.5384" id="Stroke-4" stroke="#000000" stroke-width="3"></path>
                                    <path d="M26.7095,9.0462 C26.7095,10.9802 25.1425,12.5462 23.2095,12.5462 C21.2765,12.5462 19.7095,10.9802 19.7095,9.0462 C19.7095,7.1132 21.2765,5.5462 23.2095,5.5462 C25.1425,5.5462 26.7095,7.1132 26.7095,9.0462" id="Fill-5" fill="#FFFFFF"></path>
                                    <path d="M26.7095,9.0462 C26.7095,10.9802 25.1425,12.5462 23.2095,12.5462 C21.2765,12.5462 19.7095,10.9802 19.7095,9.0462 C19.7095,7.1132 21.2765,5.5462 23.2095,5.5462 C25.1425,5.5462 26.7095,7.1132 26.7095,9.0462 Z" id="Stroke-6" stroke="#000000" stroke-width="3"></path>
                                    <path d="M14.2554,9.0462 C14.2554,10.9802 12.6884,12.5462 10.7554,12.5462 C8.8224,12.5462 7.2554,10.9802 7.2554,9.0462 C7.2554,7.1132 8.8224,5.5462 10.7554,5.5462 C12.6884,5.5462 14.2554,7.1132 14.2554,9.0462" id="Fill-7" fill="#FFFFFF"></path>
                                    <path d="M14.2554,9.0462 C14.2554,10.9802 12.6884,12.5462 10.7554,12.5462 C8.8224,12.5462 7.2554,10.9802 7.2554,9.0462 C7.2554,7.1132 8.8224,5.5462 10.7554,5.5462 C12.6884,5.5462 14.2554,7.1132 14.2554,9.0462 Z" id="Stroke-8" stroke="#000000" stroke-width="3"></path>
                                    <path d="M39.1641,9.0462 C39.1641,10.9802 37.5971,12.5462 35.6641,12.5462 C33.7311,12.5462 32.1641,10.9802 32.1641,9.0462 C32.1641,7.1132 33.7311,5.5462 35.6641,5.5462 C37.5971,5.5462 39.1641,7.1132 39.1641,9.0462" id="Fill-9" fill="#FFFFFF"></path>
                                    <path d="M39.1641,9.0462 C39.1641,10.9802 37.5971,12.5462 35.6641,12.5462 C33.7311,12.5462 32.1641,10.9802 32.1641,9.0462 C32.1641,7.1132 33.7311,5.5462 35.6641,5.5462 C37.5971,5.5462 39.1641,7.1132 39.1641,9.0462 Z" id="Stroke-10" stroke="#000000" stroke-width="3"></path>
                                    <polyline id="Stroke-11" stroke="#000000" stroke-width="3" points="11.2203 35.4192 22.0203 35.4192 26.2963 45.7682 31.7543 58.9792 55.0943 58.9792"></polyline>
                                    <polyline id="Stroke-12" stroke="#000000" stroke-width="3" points="31.2764 58.9788 54.6154 58.9788 62.3144 40.5388 24.0544 40.5388"></polyline>
                                    <path d="M35.5415,62.4788 C35.5415,64.4118 33.9745,65.9788 32.0415,65.9788 C30.1085,65.9788 28.5415,64.4118 28.5415,62.4788 C28.5415,60.5448 30.1085,58.9788 32.0415,58.9788 C33.9745,58.9788 35.5415,60.5448 35.5415,62.4788" id="Fill-13" fill="#FFFFFF"></path>
                                    <path d="M35.5415,62.4788 C35.5415,64.4118 33.9745,65.9788 32.0415,65.9788 C30.1085,65.9788 28.5415,64.4118 28.5415,62.4788 C28.5415,60.5448 30.1085,58.9788 32.0415,58.9788 C33.9745,58.9788 35.5415,60.5448 35.5415,62.4788 Z" id="Stroke-14" stroke="#000000" stroke-width="3"></path>
                                    <path d="M58.5943,62.4788 C58.5943,64.4118 57.0273,65.9788 55.0943,65.9788 C53.1603,65.9788 51.5943,64.4118 51.5943,62.4788 C51.5943,60.5448 53.1603,58.9788 55.0943,58.9788 C57.0273,58.9788 58.5943,60.5448 58.5943,62.4788" id="Fill-15" fill="#FFFFFF"></path>
                                    <path d="M58.5943,62.4788 C58.5943,64.4118 57.0273,65.9788 55.0943,65.9788 C53.1603,65.9788 51.5943,64.4118 51.5943,62.4788 C51.5943,60.5448 53.1603,58.9788 55.0943,58.9788 C57.0273,58.9788 58.5943,60.5448 58.5943,62.4788 Z" id="Stroke-16" stroke="#000000" stroke-width="3"></path>
                                    <path d="M26.8873,46.6848 L59.5333,46.6848" id="Stroke-17" stroke="#000000" stroke-width="3"></path>
                                    <path d="M29.6656,52.8313 L56.7266,52.8313" id="Stroke-18" stroke="#000000" stroke-width="3"></path>
                                </g>
                            </g>
                        </g>
                    </g>
                </g>
            </g>
        </g>
    </g>
</svg>