<svg id="Layer_1" data-name="Layer 1" xmlns="http://www.w3.org/2000/svg" xmlns:xlink="http://www.w3.org/1999/xlink" viewBox="0 0 67.1 110"><defs><style>.cls-1,.cls-6{fill:none;}.cls-2{clip-path:url(#clip-path);}.cls-3{clip-path:url(#clip-path-2);}.cls-4{clip-path:url(#clip-path-3);}.cls-5{fill:#fff;}.cls-5,.cls-6{stroke:#000;stroke-miterlimit:10;stroke-width:3px;}</style><clipPath id="clip-path"><path class="cls-1" d="M-465.8-2301.7a16.1,16.1,0,0,0-14.3,8.6,16.3,16.3,0,0,0-14.4-8.6,16.1,16.1,0,0,0-16.1,16v29h3.6v-29a12.4,12.4,0,0,1,10.7-12.2v25.2a16,16,0,0,0,16.2,16,16,16,0,0,0,16.1-16v-25.2a12.3,12.3,0,0,1,10.7,12.2v29h3.7v-29A16.2,16.2,0,0,0-465.8-2301.7Zm-15.8,42a12.6,12.6,0,0,1-11-12.4v-25.6a12.7,12.7,0,0,1,11,12.4Zm14-12.4a12.7,12.7,0,0,1-11,12.4v-25.6a12.6,12.6,0,0,1,11-12.4Z"/></clipPath><clipPath id="clip-path-2"><path class="cls-1" d="M-483.8-3426.7a16.1,16.1,0,0,0-14.3,8.6,16.3,16.3,0,0,0-14.4-8.6,16.1,16.1,0,0,0-16.1,16v29h3.6v-29a12.4,12.4,0,0,1,10.7-12.2v25.2a16,16,0,0,0,16.2,16,16,16,0,0,0,16.1-16v-25.2a12.3,12.3,0,0,1,10.7,12.2v29h3.7v-29A16.2,16.2,0,0,0-483.8-3426.7Zm-15.8,42a12.6,12.6,0,0,1-11-12.4v-25.6a12.7,12.7,0,0,1,11,12.4Zm14-12.4a12.7,12.7,0,0,1-11,12.4v-25.6a12.6,12.6,0,0,1,11-12.4Z"/></clipPath><clipPath id="clip-path-3"><path class="cls-1" d="M-477.8-1179.6a16,16,0,0,0-14.3,8.7,16.2,16.2,0,0,0-14.4-8.7,16.1,16.1,0,0,0-16.1,16v29h3.6v-29a12.5,12.5,0,0,1,10.7-12.2v25.2a16,16,0,0,0,16.2,16,16,16,0,0,0,16.1-16v-25.2a12.4,12.4,0,0,1,10.7,12.2v29h3.7v-29A16.2,16.2,0,0,0-477.8-1179.6Zm-15.8,42a12.6,12.6,0,0,1-11-12.4v-25.6a12.7,12.7,0,0,1,11,12.4Zm14-12.4a12.7,12.7,0,0,1-11,12.4v-25.6a12.6,12.6,0,0,1,11-12.4Z"/></clipPath></defs><title>Header Illustration</title><path class="cls-5" d="M55,62.5v13a5,5,0,0,1-5,5h0a5,5,0,0,1-5-5v6a5,5,0,0,1-5,5h0a5,5,0,0,1-5-5v22a5,5,0,0,1-5,5h0a5,5,0,0,1-5-5v-33L24,58c-3.8,4.8-13.2,13.9-13.2,13.9-2.3,2.5-5.5,2.2-7.9.8h0c-3.4-3.3.2-5.9,1.6-8.3,0,0,11-10,19-28,2-6,5.5-12,6.5-14,2.3-4.5,30.5-6,31,3.6,0,0,5.5,15.4,4.5,27.4,0,4-.5,16.1-.5,16.1a5,5,0,0,1-5,5h0a5,5,0,0,1-5-5Z"/><rect x="20" width="45" height="23"/><line class="cls-6" x1="45" y1="75.5" x2="45" y2="66.5"/><line class="cls-6" x1="35" y1="81.5" x2="35" y2="70.5"/></svg>