<?xml version="1.0" encoding="UTF-8"?>
<svg width="286px" height="285px" viewBox="0 0 286 285" version="1.1" xmlns="http://www.w3.org/2000/svg" xmlns:xlink="http://www.w3.org/1999/xlink">
    <!-- Generator: Sketch 52.3 (67297) - http://www.bohemiancoding.com/sketch -->
    <title>Landing Page Set Icon</title>
    <desc>Created with Sketch.</desc>
    <g id="Desktop" stroke="none" stroke-width="1" fill="none" fill-rule="evenodd">
        <g id="Landing-Page" transform="translate(-776.000000, -1944.000000)">
            <rect fill="#FFFFFF" x="0" y="0" width="1280" height="4935"></rect>
            <g id="Make-Kit" transform="translate(44.000000, 1675.000000)">
                <g id="Themes" transform="translate(2.000000, 259.000000)">
                    <g id="Theme-Three---Landing-Page-Set" transform="translate(800.000000, 76.000000)">
                        <g id="Landing-Page-Set-Icon" transform="translate(30.000000, 35.000000)">
                            <g id="Group-20" transform="translate(1.000000, 1.000000)">
                                <polygon id="Fill-1" fill="#FFFFFF" points="0.5 80.5873 82.602 80.5873 82.602 0.4993 0.5 0.4993"></polygon>
                                <g id="Group-11" transform="translate(0.000000, 0.087300)">
                                    <polygon id="Stroke-2" stroke="#000000" stroke-width="3" points="0.5 80.5 82.602 80.5 82.602 0.412 0.5 0.412"></polygon>
                                    <path d="M0.5,17.5384 L82.602,17.5384" id="Stroke-4" stroke="#000000" stroke-width="3"></path>
                                    <path d="M26.71,9.0462 C26.71,10.9802 25.143,12.5462 23.21,12.5462 C21.276,12.5462 19.71,10.9802 19.71,9.0462 C19.71,7.1132 21.276,5.5462 23.21,5.5462 C25.143,5.5462 26.71,7.1132 26.71,9.0462" id="Fill-5" fill="#FFFFFF"></path>
                                    <path d="M26.71,9.0462 C26.71,10.9802 25.143,12.5462 23.21,12.5462 C21.276,12.5462 19.71,10.9802 19.71,9.0462 C19.71,7.1132 21.276,5.5462 23.21,5.5462 C25.143,5.5462 26.71,7.1132 26.71,9.0462 Z" id="Stroke-6" stroke="#000000" stroke-width="3"></path>
                                    <path d="M14.2559,9.0462 C14.2559,10.9802 12.6889,12.5462 10.7559,12.5462 C8.8219,12.5462 7.2559,10.9802 7.2559,9.0462 C7.2559,7.1132 8.8219,5.5462 10.7559,5.5462 C12.6889,5.5462 14.2559,7.1132 14.2559,9.0462" id="Fill-7" fill="#FFFFFF"></path>
                                    <path d="M14.2559,9.0462 C14.2559,10.9802 12.6889,12.5462 10.7559,12.5462 C8.8219,12.5462 7.2559,10.9802 7.2559,9.0462 C7.2559,7.1132 8.8219,5.5462 10.7559,5.5462 C12.6889,5.5462 14.2559,7.1132 14.2559,9.0462 Z" id="Stroke-8" stroke="#000000" stroke-width="3"></path>
                                    <path d="M39.1641,9.0462 C39.1641,10.9802 37.5971,12.5462 35.6641,12.5462 C33.7301,12.5462 32.1641,10.9802 32.1641,9.0462 C32.1641,7.1132 33.7301,5.5462 35.6641,5.5462 C37.5971,5.5462 39.1641,7.1132 39.1641,9.0462" id="Fill-9" fill="#FFFFFF"></path>
                                    <path d="M39.1641,9.0462 C39.1641,10.9802 37.5971,12.5462 35.6641,12.5462 C33.7301,12.5462 32.1641,10.9802 32.1641,9.0462 C32.1641,7.1132 33.7301,5.5462 35.6641,5.5462 C37.5971,5.5462 39.1641,7.1132 39.1641,9.0462 Z" id="Stroke-10" stroke="#000000" stroke-width="3"></path>
                                </g>
                                <polygon id="Fill-12" fill="#FFFFFF" points="41.377 71.5873 73.602 71.5873 73.602 26.6253 41.377 26.6253"></polygon>
                                <polygon id="Stroke-13" stroke="#000000" stroke-width="3" points="41.377 71.5873 73.602 71.5873 73.602 26.6253 41.377 26.6253"></polygon>
                                <path d="M7.9747,26.6257 L35.4707,26.6257" id="Stroke-14" stroke="#000000" stroke-width="3"></path>
                                <path d="M7.9747,32.6257 L35.4707,32.6257" id="Stroke-15" stroke="#000000" stroke-width="3"></path>
                                <path d="M7.9747,38.6257 L35.4707,38.6257" id="Stroke-16" stroke="#000000" stroke-width="3"></path>
                                <path d="M7.9747,44.6257 L35.4707,44.6257" id="Stroke-17" stroke="#000000" stroke-width="3"></path>
                                <path d="M7.9747,50.6257 L35.4707,50.6257" id="Stroke-18" stroke="#000000" stroke-width="3"></path>
                                <polygon id="Stroke-19" stroke="#000000" stroke-width="3" points="9.514 71.5873 33.985 71.5873 33.985 61.5793 9.514 61.5793"></polygon>
                            </g>
                        </g>
                    </g>
                </g>
            </g>
        </g>
    </g>
</svg>