<svg id="Layer_1" data-name="Layer 1" xmlns="http://www.w3.org/2000/svg" viewBox="0 0 100 100"><defs><style>.cls-1{fill:none;}.cls-1,.cls-2{stroke:#fff;stroke-miterlimit:10;}.cls-2{fill:none;stroke-width:3px;}</style></defs><title>MakeUI_Icons</title><polygon class="cls-1" points="5.6 35.8 25.7 10.9 50.6 7.4 75.4 10.9 94.4 35.9 50.6 92.6 5.6 35.8"/><polyline class="cls-2" points="5 35.8 25.1 37 25.1 10.9"/><polyline class="cls-2" points="50 92.6 25.1 37 50 37"/><line class="cls-2" x1="25.1" y1="37" x2="50" y2="7.4"/><polygon class="cls-2" points="50 92.6 95 35.8 74.9 10.9 50 7.4 25.1 10.9 5 35.8 50 92.6"/><polyline class="cls-2" points="95 35.8 74.9 37 74.9 10.9"/><polyline class="cls-2" points="50 92.6 74.9 37 50 37"/><line class="cls-2" x1="74.9" y1="37" x2="50" y2="7.4"/></svg>