<svg xmlns="http://www.w3.org/2000/svg" xmlns:xlink="http://www.w3.org/1999/xlink" viewBox="0 0 61 45"><defs><style>.cls-1{fill:none;}.cls-2{clip-path:url(#clip-path);}</style><clipPath id="clip-path"><path class="cls-1" d="M-694.4-2136.6a16.2,16.2,0,0,0-14.3,8.6,16.2,16.2,0,0,0-14.4-8.6,16.1,16.1,0,0,0-16.1,16v29h3.6v-29a12.6,12.6,0,0,1,10.7-12.3v25.3a16.2,16.2,0,0,0,16.2,16,16.1,16.1,0,0,0,16.1-16v-25.3a12.5,12.5,0,0,1,10.7,12.3v29h3.7v-29A16.2,16.2,0,0,0-694.4-2136.6Zm-15.8,42a12.7,12.7,0,0,1-11-12.4v-25.6a12.7,12.7,0,0,1,11,12.4Zm14-12.4a12.7,12.7,0,0,1-11,12.4v-25.6a12.7,12.7,0,0,1,11-12.4Z"/></clipPath></defs><title>makeui-logo</title><g id="Layer_2" data-name="Layer 2"><path d="M44.8,0A16.2,16.2,0,0,0,30.5,8.6,16.2,16.2,0,0,0,0,16V45H3.6V16A12.6,12.6,0,0,1,14.3,3.7V29a16.2,16.2,0,0,0,32.4,0V3.7A12.6,12.6,0,0,1,57.4,16V45H61V16A16.2,16.2,0,0,0,44.8,0ZM29,42A12.7,12.7,0,0,1,18,29.6V4A12.7,12.7,0,0,1,29,16.4ZM43,29.6A12.7,12.7,0,0,1,32,42V16.4A12.7,12.7,0,0,1,43,4Z"/></g></svg>