<svg id="Layer_1" data-name="Layer 1" xmlns="http://www.w3.org/2000/svg" xmlns:xlink="http://www.w3.org/1999/xlink" viewBox="0 0 10.9 83.9"><defs><style>.cls-1,.cls-5{fill:none;}.cls-2{clip-path:url(#clip-path);}.cls-3{clip-path:url(#clip-path-2);}.cls-4{clip-path:url(#clip-path-3);}.cls-5{stroke:#000;stroke-miterlimit:10;stroke-width:3px;}</style><clipPath id="clip-path"><path class="cls-1" d="M-924.2-1996.7a16.2,16.2,0,0,0-14.4,8.6,16.2,16.2,0,0,0-14.3-8.6,16.1,16.1,0,0,0-16.2,16v27.2h0v1.7h3.7v-29a12.4,12.4,0,0,1,10.7-12.3v25.3a16.1,16.1,0,0,0,16.1,16,16.2,16.2,0,0,0,16.2-16V-1993a12.5,12.5,0,0,1,10.7,12.3v27.2h0v1.7h3.6v-29A16,16,0,0,0-924.2-1996.7Zm-15.9,42a12.7,12.7,0,0,1-11-12.4v-25.6a12.7,12.7,0,0,1,11,12.4Zm14-12.4a12.7,12.7,0,0,1-11,12.4v-25.6a12.7,12.7,0,0,1,11-12.4Z"/></clipPath><clipPath id="clip-path-2"><path class="cls-1" d="M-942.2-3121.7a16.2,16.2,0,0,0-14.4,8.6,16.2,16.2,0,0,0-14.3-8.6,16.1,16.1,0,0,0-16.2,16v27.2h0v1.7h3.7v-29a12.4,12.4,0,0,1,10.7-12.3v25.3a16.1,16.1,0,0,0,16.1,16,16.2,16.2,0,0,0,16.2-16V-3118a12.5,12.5,0,0,1,10.7,12.3v27.2h0v1.7h3.6v-29A16,16,0,0,0-942.2-3121.7Zm-15.9,42a12.7,12.7,0,0,1-11-12.4v-25.6a12.7,12.7,0,0,1,11,12.4Zm14-12.4a12.7,12.7,0,0,1-11,12.4v-25.6a12.7,12.7,0,0,1,11-12.4Z"/></clipPath><clipPath id="clip-path-3"><path class="cls-1" d="M-936.2-874.6a16.2,16.2,0,0,0-14.4,8.6,16.2,16.2,0,0,0-14.3-8.6,16.1,16.1,0,0,0-16.2,16v29h3.7v-29a12.5,12.5,0,0,1,10.7-12.3v25.3a16.1,16.1,0,0,0,16.1,16,16.2,16.2,0,0,0,16.2-16v-25.3a12.6,12.6,0,0,1,10.7,12.3v29h3.6v-29A16,16,0,0,0-936.2-874.6Zm-15.9,42a12.7,12.7,0,0,1-11-12.4v-25.6a12.7,12.7,0,0,1,11,12.4Zm14-12.4a12.7,12.7,0,0,1-11,12.4v-25.6a12.7,12.7,0,0,1,11-12.4Z"/></clipPath></defs><title>player_interface</title><rect x="-9.6" y="63.9" width="30" height="10" rx="5" ry="5" transform="translate(-63.4 74.3) rotate(-90)"/><polyline class="cls-5" points="9.8 6.6 5.4 2.1 1.1 6.6"/><polyline class="cls-5" points="1.1 13.1 5.4 17.6 9.8 13.1"/></svg>