<svg id="radio-button" data-name="radio-button" xmlns="http://www.w3.org/2000/svg" xmlns:xlink="http://www.w3.org/1999/xlink" viewBox="0 0 17.5 37.5"><defs><style>.cls-1{fill:none;}.cls-2{clip-path:url(#clip-path);}.cls-3{clip-path:url(#clip-path-2);}.cls-4{clip-path:url(#clip-path-3);}.cls-5{fill:#fff;stroke:#000;stroke-miterlimit:10;stroke-width:3px;}</style><clipPath id="clip-path"><path class="cls-1" d="M-152.2-2306.1a16.2,16.2,0,0,0-14.3,8.6,16.2,16.2,0,0,0-14.3-8.6,16.2,16.2,0,0,0-16.2,16v29h3.6v-29a12.6,12.6,0,0,1,10.7-12.3v25.3a16.2,16.2,0,0,0,16.2,16,16.2,16.2,0,0,0,16.2-16v-25.3a12.6,12.6,0,0,1,10.7,12.3v29h3.6v-29A16.2,16.2,0,0,0-152.2-2306.1Zm-15.8,42a12.7,12.7,0,0,1-11-12.4v-25.6a12.7,12.7,0,0,1,11,12.4Zm14-12.4a12.7,12.7,0,0,1-11,12.4v-25.6a12.7,12.7,0,0,1,11-12.4Z"/></clipPath><clipPath id="clip-path-2"><path class="cls-1" d="M-170.2-3431.1a16.2,16.2,0,0,0-14.3,8.6,16.2,16.2,0,0,0-14.3-8.6,16.2,16.2,0,0,0-16.2,16v29h3.6v-29a12.6,12.6,0,0,1,10.7-12.3v25.3a16.2,16.2,0,0,0,16.2,16,16.2,16.2,0,0,0,16.2-16v-25.3a12.6,12.6,0,0,1,10.7,12.3v29h3.6v-29A16.2,16.2,0,0,0-170.2-3431.1Zm-15.8,42a12.7,12.7,0,0,1-11-12.4v-25.6a12.7,12.7,0,0,1,11,12.4Zm14-12.4a12.7,12.7,0,0,1-11,12.4v-25.6a12.7,12.7,0,0,1,11-12.4Z"/></clipPath><clipPath id="clip-path-3"><path class="cls-1" d="M-164.2-1184a16.2,16.2,0,0,0-14.3,8.6,16.2,16.2,0,0,0-14.3-8.6,16.2,16.2,0,0,0-16.2,16v29h3.6v-29a12.6,12.6,0,0,1,10.7-12.3v25.3a16.2,16.2,0,0,0,16.2,16,16.2,16.2,0,0,0,16.2-16v-25.3a12.6,12.6,0,0,1,10.7,12.3v29h3.6v-29A16.2,16.2,0,0,0-164.2-1184Zm-15.8,42a12.7,12.7,0,0,1-11-12.4V-1180a12.7,12.7,0,0,1,11,12.4Zm14-12.4a12.7,12.7,0,0,1-11,12.4v-25.6a12.7,12.7,0,0,1,11-12.4Z"/></clipPath></defs><title>radio-button</title><circle class="cls-5" cx="8.5" cy="8.5" r="7"/><circle cx="8.5" cy="8.5" r="3.5"/><circle class="cls-5" cx="9" cy="29" r="7"/></svg>