<svg id="Layer_1" data-name="Layer 1" xmlns="http://www.w3.org/2000/svg" xmlns:xlink="http://www.w3.org/1999/xlink" viewBox="0 0 29.9 32.8"><defs><style>.cls-1,.cls-5{fill:none;}.cls-2{clip-path:url(#clip-path);}.cls-3{clip-path:url(#clip-path-2);}.cls-4{clip-path:url(#clip-path-3);}.cls-5{stroke:#000;stroke-miterlimit:10;stroke-width:3px;}</style><clipPath id="clip-path"><path class="cls-1" d="M-677.4-1953.7a16.2,16.2,0,0,0-14.3,8.6,16.2,16.2,0,0,0-14.3-8.6,16.1,16.1,0,0,0-16.2,16v29h3.6v-29a12.6,12.6,0,0,1,10.7-12.3v25.3a16.2,16.2,0,0,0,16.2,16,16.2,16.2,0,0,0,16.2-16V-1950a12.5,12.5,0,0,1,10.6,12.3v29h3.6v-29A16.2,16.2,0,0,0-677.4-1953.7Zm-15.8,42a12.7,12.7,0,0,1-11-12.4v-25.6a12.7,12.7,0,0,1,11,12.4Zm14-12.4a12.7,12.7,0,0,1-11,12.4v-25.6a12.7,12.7,0,0,1,11-12.4Z"/></clipPath><clipPath id="clip-path-2"><path class="cls-1" d="M-695.4-3078.7a16.2,16.2,0,0,0-14.3,8.6,16.2,16.2,0,0,0-14.3-8.6,16.1,16.1,0,0,0-16.2,16v29h3.6v-29a12.6,12.6,0,0,1,10.7-12.3v25.3a16.2,16.2,0,0,0,16.2,16,16.2,16.2,0,0,0,16.2-16V-3075a12.5,12.5,0,0,1,10.6,12.3v29h3.6v-29A16.2,16.2,0,0,0-695.4-3078.7Zm-15.8,42a12.7,12.7,0,0,1-11-12.4v-25.6a12.7,12.7,0,0,1,11,12.4Zm14-12.4a12.7,12.7,0,0,1-11,12.4v-25.6a12.7,12.7,0,0,1,11-12.4Z"/></clipPath><clipPath id="clip-path-3"><path class="cls-1" d="M-689.4-831.6a16.2,16.2,0,0,0-14.3,8.6,16.2,16.2,0,0,0-14.3-8.6,16.1,16.1,0,0,0-16.2,16v29h3.6v-29a12.6,12.6,0,0,1,10.7-12.3v25.3a16.2,16.2,0,0,0,16.2,16,16.2,16.2,0,0,0,16.2-16v-25.3a12.5,12.5,0,0,1,10.6,12.3v27.2c0,.1,0,.1.1.2v1.6h3.6v-29A16.2,16.2,0,0,0-689.4-831.6Zm-15.8,42a12.7,12.7,0,0,1-11-12.4v-25.6a12.7,12.7,0,0,1,11,12.4Zm14-12.4a12.7,12.7,0,0,1-11,12.4v-25.6a12.7,12.7,0,0,1,11-12.4Z"/></clipPath></defs><title>right-arrow</title><polyline class="cls-5" points="29.1 1.3 3 16.4 29.1 31.5"/></svg>