<?xml version="1.0" encoding="UTF-8"?>
<svg width="39px" height="30px" viewBox="0 0 39 30" version="1.1" xmlns="http://www.w3.org/2000/svg" xmlns:xlink="http://www.w3.org/1999/xlink">
    <!-- Generator: Sketch 52.5 (67469) - http://www.bohemiancoding.com/sketch -->
    <title>Tiny Preview Icon</title>
    <desc>Created with Sketch.</desc>
    <g id="Desktop" stroke="none" stroke-width="1" fill="none" fill-rule="evenodd">
        <g id="Landing-Page" transform="translate(-669.000000, -2429.000000)" fill="#FFFFFF" stroke="#000000" stroke-width="3">
            <g id="Make-Kit" transform="translate(44.000000, 1675.000000)">
                <g id="Themes" transform="translate(2.000000, 259.000000)">
                    <g id="Theme-Two" transform="translate(400.000000, 76.000000)">
                        <g id="Select-Theme" transform="translate(225.000000, 421.000000)">
                            <g id="TinySelect-icon">
                                <path d="M26.1089387,12.6715593 L26.1089387,17.6979139 C26.1089387,18.7611812 25.1873357,19.6311271 24.060932,19.6311271 C22.9345283,19.6311271 22.0129253,18.7611812 22.0129253,17.6979139 L22.0129253,14.21813 L22.0129253,20.0177698 C22.0129253,21.0810371 21.0913223,21.9509831 19.9649186,21.9509831 C18.8385149,21.9509831 17.9169119,21.0810371 17.9169119,20.0177698 L17.9169119,15.7647006 L17.9169119,28.5239082 C17.9169119,29.5871755 16.9953089,30.4571215 15.8689052,30.4571215 C14.7425015,30.4571215 13.8208985,29.5871755 13.8208985,28.5239082 L13.8208985,15.7647006 L13.4112972,10.9316674 C11.8552217,12.7867788 7.99554823,16.3206927 7.99554823,16.3206927 C7.06001877,17.2733802 5.74274086,17.1450149 4.7769009,16.5986888 C3.37360671,15.3401669 4.84243712,14.3190437 5.42161341,13.4069537 C5.42161341,13.4069537 9.92722815,9.54052711 13.2040389,2.5809593 C14.0232416,0.261103366 15.4593039,-2.05875257 15.8689052,-2.83203788 C16.7847738,-4.56110384 28.3592885,-5.15189382 28.5665467,-1.44089761 C28.5665467,-1.44089761 30.8168965,4.51417258 30.4072952,9.15388445 C30.4072952,10.7004551 30.2049521,15.3780579 30.2049521,15.3780579 C30.2049521,16.4413252 29.2833491,17.3112712 28.1569454,17.3112712 C27.0305417,17.3112712 26.1089387,16.4413252 26.1089387,15.3780579 L26.1089387,12.6715593 Z" id="Fill-21" transform="translate(17.322407, 13.134714) scale(-1, 1) rotate(-270.000000) translate(-17.322407, -13.134714) "></path>
                            </g>
                        </g>
                    </g>
                </g>
            </g>
        </g>
    </g>
</svg>