<?xml version="1.0" encoding="UTF-8"?>
<svg width="33px" height="35px" viewBox="0 0 33 35" version="1.1" xmlns="http://www.w3.org/2000/svg" xmlns:xlink="http://www.w3.org/1999/xlink">
    <!-- Generator: Sketch 52.5 (67469) - http://www.bohemiancoding.com/sketch -->
    <title>TinySelect icon</title>
    <desc>Created with Sketch.</desc>
    <g id="Desktop" stroke="none" stroke-width="1" fill="none" fill-rule="evenodd">
        <g id="Landing-Page" transform="translate(-262.000000, -2427.000000)" fill="#000000" stroke="#FFFFFF" stroke-width="3">
            <g id="Make-Kit" transform="translate(44.000000, 1675.000000)">
                <g id="Themes" transform="translate(2.000000, 259.000000)">
                    <g id="Theme-One" transform="translate(0.000000, 76.000000)">
                        <g id="Selected-Theme" transform="translate(218.000000, 419.000000)">
                            <g id="tiny-Thumbs-up">
                                <path d="M24.6825927,20.0841669 L24.6825927,25.684962 C24.6825927,26.8697456 23.5903225,27.8391139 22.2553255,27.8391139 C20.9203286,27.8391139 19.8280583,26.8697456 19.8280583,25.684962 L19.8280583,21.8074885 L19.8280583,26.9394063 C19.8280583,28.1241899 18.7357881,29.0935583 17.4007911,29.0935583 C16.0657942,29.0935583 14.9735239,28.1241899 14.9735239,26.9394063 L14.9735239,23.5308101 L14.9735239,27.8391139 C14.9735239,29.0238975 13.8812537,29.9932659 12.5462567,29.9932659 C11.2112598,29.9932659 10.1189895,29.0238975 10.1189895,27.8391139 L10.1189895,23.5308101 L9.6335361,18.1454302 C7.78929848,20.2125544 3.21487071,24.1503442 3.21487071,24.1503442 C2.10609506,25.2119102 0.819183197,25.684962 -0.59982242,24.4601112 C-1.70052514,22.8999957 -0.957540939,21.8074885 0.164281295,20.9036063 C0.164281295,20.9036063 5.50426914,16.5953025 9.38789666,8.84035548 C10.3588035,6.25537315 12.0608033,3.67039083 12.5462567,2.80873005 C13.6317306,0.882056555 27.3496739,0.223747722 27.5953134,4.35885779 C27.5953134,4.35885779 30.2623946,10.9945074 29.7769411,16.1644721 C29.7769411,17.8877936 29.5371272,23.0999797 29.5371272,23.0999797 C29.5371272,24.2847632 28.4448569,25.2541316 27.1098599,25.2541316 C25.774863,25.2541316 24.6825927,24.2847632 24.6825927,23.0999797 L24.6825927,20.0841669 Z" id="Fill-21" transform="translate(14.347561, 15.645705) scale(-1, 1) rotate(-270.000000) translate(-14.347561, -15.645705) "></path>
                            </g>
                        </g>
                    </g>
                </g>
            </g>
        </g>
    </g>
</svg>