<?xml version="1.0" encoding="UTF-8"?>
<svg width="35px" height="28px" viewBox="0 0 35 28" version="1.1" xmlns="http://www.w3.org/2000/svg" xmlns:xlink="http://www.w3.org/1999/xlink">
    <!-- Generator: Sketch 52.3 (67297) - http://www.bohemiancoding.com/sketch -->
    <title>Twitter</title>
    <desc>Created with Sketch.</desc>
    <defs>
        <polygon id="path-1" points="0.0005 0.0002 34.106 0.0002 34.106 27.7115 0.0005 27.7115"></polygon>
    </defs>
    <g id="Desktop" stroke="none" stroke-width="1" fill="none" fill-rule="evenodd">
        <g id="Confirmation-Message---One-Time-Download" transform="translate(-488.000000, -555.000000)">
            <g id="Thank-you-message" transform="translate(446.000000, 161.000000)">
                <g id="Share" transform="translate(40.000000, 335.000000)">
                    <g id="Twitter" transform="translate(2.000000, 59.000000)">
                        <mask id="mask-2" fill="white">
                            <use xlink:href="#path-1"></use>
                        </mask>
                        <g id="Clip-2"></g>
                        <path d="M34.1065,3.2802 C32.8515,3.8372 31.5025,4.2132 30.0875,4.3822 C31.5325,3.5162 32.6415,2.1452 33.1645,0.5112 C31.8125,1.3132 30.3145,1.8952 28.7205,2.2092 C27.4445,0.8492 25.6265,0.0002 23.6135,0.0002 C19.7495,0.0002 16.6165,3.1332 16.6165,6.9962 C16.6165,7.5442 16.6775,8.0782 16.7965,8.5902 C10.9815,8.2982 5.8255,5.5122 2.3745,1.2802 C1.7725,2.3132 1.4265,3.5152 1.4265,4.7982 C1.4265,7.2242 2.6625,9.3662 4.5405,10.6212 C3.3925,10.5842 2.3135,10.2692 1.3705,9.7452 L1.3705,9.8332 C1.3705,13.2222 3.7825,16.0512 6.9835,16.6932 C6.3955,16.8532 5.7775,16.9382 5.1395,16.9382 C4.6885,16.9382 4.2505,16.8942 3.8235,16.8132 C4.7135,19.5922 7.2975,21.6152 10.3595,21.6722 C7.9645,23.5482 4.9475,24.6662 1.6685,24.6662 C1.1045,24.6662 0.5475,24.6332 0.0005,24.5682 C3.0965,26.5532 6.7745,27.7122 10.7265,27.7122 C23.5965,27.7122 30.6345,17.0512 30.6345,7.8062 C30.6345,7.5042 30.6275,7.2022 30.6155,6.9022 C31.9825,5.9162 33.1685,4.6832 34.1065,3.2802" id="Fill-1" fill="#000000" mask="url(#mask-2)"></path>
                    </g>
                </g>
            </g>
        </g>
    </g>
</svg>