<svg id="Layer_1" data-name="Layer 1" xmlns="http://www.w3.org/2000/svg" xmlns:xlink="http://www.w3.org/1999/xlink" viewBox="0 0 1216.2 45"><defs><style>.cls-1{fill:none;}.cls-2{clip-path:url(#clip-path);}.cls-3{clip-path:url(#clip-path-2);}.cls-4{clip-path:url(#clip-path-3);}.cls-5{clip-path:url(#clip-path-4);}</style><clipPath id="clip-path"><path class="cls-1" d="M-343.2-1997.4a16.2,16.2,0,0,0-14.3,8.6,16.2,16.2,0,0,0-14.3-8.6,16.2,16.2,0,0,0-16.2,16v29h3.7v-29a12.5,12.5,0,0,1,10.6-12.3v25.3a16.2,16.2,0,0,0,16.2,16,16.2,16.2,0,0,0,16.2-16v-25.3a12.6,12.6,0,0,1,10.7,12.3v29h3.6v-29A16.1,16.1,0,0,0-343.2-1997.4Zm-15.8,42a12.7,12.7,0,0,1-11-12.4v-25.6a12.7,12.7,0,0,1,11,12.4Zm14-12.4a12.7,12.7,0,0,1-11,12.4V-1981a12.7,12.7,0,0,1,11-12.4Z"/></clipPath><clipPath id="clip-path-2"><path class="cls-1" d="M925.8-1997.4a16.2,16.2,0,0,0-14.3,8.6,16.2,16.2,0,0,0-14.3-8.6,16.2,16.2,0,0,0-16.2,16v29h3.7v-29a12.5,12.5,0,0,1,10.6-12.3v25.3a16.2,16.2,0,0,0,16.2,16,16.2,16.2,0,0,0,16.2-16v-25.3a12.6,12.6,0,0,1,10.7,12.3v29H942v-29A16.1,16.1,0,0,0,925.8-1997.4Zm-15.8,42a12.7,12.7,0,0,1-11-12.4v-25.6a12.7,12.7,0,0,1,11,12.4Zm14-12.4a12.7,12.7,0,0,1-11,12.4V-1981a12.7,12.7,0,0,1,11-12.4Z"/></clipPath><clipPath id="clip-path-3"><path class="cls-1" d="M907.8-3122.4a16.2,16.2,0,0,0-14.3,8.6,16.2,16.2,0,0,0-14.3-8.6,16.2,16.2,0,0,0-16.2,16v29h3.7v-29a12.5,12.5,0,0,1,10.6-12.3v25.3a16.2,16.2,0,0,0,16.2,16,16.2,16.2,0,0,0,16.2-16v-25.3a12.6,12.6,0,0,1,10.7,12.3v29H924v-29A16.1,16.1,0,0,0,907.8-3122.4Zm-15.8,42a12.7,12.7,0,0,1-11-12.4v-25.6a12.7,12.7,0,0,1,11,12.4Zm14-12.4a12.7,12.7,0,0,1-11,12.4V-3106a12.7,12.7,0,0,1,11-12.4Z"/></clipPath><clipPath id="clip-path-4"><path class="cls-1" d="M913.8-875.3a16.2,16.2,0,0,0-14.3,8.6,16.2,16.2,0,0,0-14.3-8.6,16.2,16.2,0,0,0-16.2,16v29h3.7v-29a12.3,12.3,0,0,1,10.6-12.2v25.2a16.2,16.2,0,0,0,16.2,16,16.2,16.2,0,0,0,16.2-16v-25.2a12.4,12.4,0,0,1,10.7,12.2v29H930v-29A16.1,16.1,0,0,0,913.8-875.3Zm-15.8,42a12.7,12.7,0,0,1-11-12.4v-25.6a12.7,12.7,0,0,1,11,12.4Zm14-12.4a12.7,12.7,0,0,1-11,12.4v-25.6a12.7,12.7,0,0,1,11-12.4Z"/></clipPath></defs><title>wave</title><path d="M0,42c4,0,6.7-11,8.9-19.9C11.6,10.8,14.3,0,20.6,0s9,10.8,11.8,22.1C34.6,31,37.3,42,41.2,42s6.7-11,8.9-19.9C52.9,10.8,55.5,0,61.8,0s9,10.8,11.8,22.1C75.8,31,78.5,42,82.5,42s6.6-11,8.8-19.9C94.1,10.8,96.7,0,103.1,0s8.9,10.8,11.7,22.1C117,31,119.7,42,123.7,42s6.7-11,8.8-19.9C135.3,10.8,138,0,144.3,0s9,10.8,11.8,22.1c2.1,8.9,4.8,19.9,8.8,19.9s6.7-11,8.9-19.9C176.6,10.8,179.2,0,185.5,0s9,10.8,11.8,22.1c2.2,8.9,4.9,19.9,8.9,19.9s6.6-11,8.8-19.9C217.8,10.8,220.4,0,226.8,0s8.9,10.8,11.7,22.1c2.2,8.9,4.9,19.9,8.9,19.9s6.7-11,8.8-19.9C259,10.8,261.7,0,268,0s9,10.8,11.8,22.1c2.1,8.9,4.8,19.9,8.8,19.9s6.7-11,8.9-19.9C300.3,10.8,302.9,0,309.2,0s9,10.8,11.8,22.1c2.2,8.9,4.9,19.9,8.8,19.9s6.7-11,8.9-19.9C341.5,10.8,344.1,0,350.5,0s8.9,10.8,11.7,22.1c2.2,8.9,4.9,19.9,8.9,19.9s6.7-11,8.8-19.9C382.7,10.8,385.4,0,391.7,0s9,10.8,11.8,22.1c2.1,8.9,4.8,19.9,8.8,19.9s6.7-11,8.9-19.9C424,10.8,426.6,0,432.9,0s9,10.8,11.8,22.1c2.2,8.9,4.9,19.9,8.8,19.9s6.7-11,8.9-19.9C465.2,10.8,467.8,0,474.2,0s8.9,10.8,11.7,22.1c2.2,8.9,4.9,19.9,8.9,19.9s6.6-11,8.8-19.9C506.4,10.8,509,0,515.4,0s8.9,10.8,11.7,22.1C529.3,31,532,42,536,42s6.7-11,8.8-19.9C547.6,10.8,550.3,0,556.6,0s9,10.8,11.8,22.1c2.1,8.9,4.8,19.9,8.8,19.9s6.7-11,8.9-19.9C588.9,10.8,591.5,0,597.8,0s9,10.8,11.8,22.1c2.2,8.9,4.9,19.9,8.9,19.9s6.6-11,8.8-19.9C630.1,10.8,632.7,0,639.1,0s8.9,10.8,11.7,22.1C653,31,655.7,42,659.7,42s6.7-11,8.8-19.9C671.3,10.8,674,0,680.3,0s9,10.8,11.8,22.1c2.1,8.9,4.8,19.9,8.8,19.9s6.7-11,8.9-19.9C712.6,10.8,715.2,0,721.5,0s9,10.8,11.8,22.1c2.2,8.9,4.9,19.9,8.8,19.9s6.7-11,8.9-19.9C753.8,10.8,756.4,0,762.7,0s9,10.8,11.8,22.1c2.2,8.9,4.9,19.9,8.9,19.9s6.6-11,8.8-19.9C795,10.8,797.6,0,804,0s8.9,10.8,11.7,22.1c2.2,8.9,4.9,19.9,8.9,19.9s6.7-11,8.8-19.9C836.2,10.8,838.9,0,845.2,0s9,10.8,11.8,22.1c2.1,8.9,4.8,19.9,8.8,19.9s6.7-11,8.9-19.9C877.5,10.8,880.1,0,886.4,0s9,10.8,11.8,22.1C900.4,31,903.1,42,907,42s6.7-11,8.9-19.9C918.7,10.8,921.3,0,927.7,0s8.9,10.8,11.7,22.1c2.2,8.9,4.9,19.9,8.9,19.9s6.6-11,8.8-19.9C959.9,10.8,962.5,0,968.9,0s8.9,10.8,11.7,22.1c2.2,8.9,4.9,19.9,8.9,19.9s6.7-11,8.8-19.9c2.8-11.3,5.5-22.1,11.8-22.1s9,10.8,11.8,22.1c2.1,8.9,4.8,19.9,8.8,19.9s6.7-11,8.9-19.9C1042.4,10.8,1045,0,1051.3,0s9,10.8,11.8,22.1c2.2,8.9,4.9,19.9,8.8,19.9s6.7-11,8.9-19.9c2.8-11.3,5.4-22.1,11.8-22.1s8.9,10.8,11.7,22.1c2.2,8.9,4.9,19.9,8.9,19.9s6.6-11,8.8-19.9c2.8-11.3,5.5-22.1,11.8-22.1s8.9,10.8,11.7,22.1c2.2,8.9,4.9,19.9,8.9,19.9s6.7-11,8.8-19.9C1166,10.8,1168.7,0,1175,0s9,10.8,11.8,22.1c2.1,8.9,4.8,19.9,8.8,19.9s6.7-11,8.9-19.9c2.8-11.3,5.4-22.1,11.7-22.1V3c-4,0-6.7,11-8.8,19.9-2.8,11.3-5.5,22.1-11.8,22.1s-9-10.8-11.8-22.1C1181.7,14,1179,3,1175,3s-6.7,11-8.8,19.9c-2.8,11.3-5.5,22.1-11.8,22.1s-9-10.8-11.8-22.1c-2.1-8.9-4.8-19.9-8.8-19.9s-6.7,11-8.9,19.9c-2.8,11.3-5.4,22.1-11.7,22.1s-9-10.8-11.8-22.1c-2.2-8.9-4.9-19.9-8.8-19.9s-6.7,11-8.9,19.9c-2.8,11.3-5.4,22.1-11.8,22.1s-8.9-10.8-11.7-22.1C1058,14,1055.3,3,1051.3,3s-6.6,11-8.8,19.9c-2.8,11.3-5.5,22.1-11.8,22.1s-9-10.8-11.7-22.1c-2.2-8.9-4.9-19.9-8.9-19.9s-6.7,11-8.8,19.9C998.5,34.2,995.8,45,989.5,45s-9-10.8-11.8-22.1C975.6,14,972.9,3,968.9,3s-6.7,11-8.9,19.9C957.2,34.2,954.6,45,948.3,45s-9-10.8-11.8-22.1C934.3,14,931.6,3,927.7,3s-6.7,11-8.9,19.9C916,34.2,913.4,45,907,45s-8.9-10.8-11.7-22.1C893.1,14,890.4,3,886.4,3s-6.7,11-8.8,19.9C874.8,34.2,872.1,45,865.8,45s-9-10.8-11.8-22.1C851.9,14,849.2,3,845.2,3s-6.7,11-8.9,19.9C833.6,34.2,830.9,45,824.6,45s-9-10.8-11.8-22.1C810.7,14,808,3,804,3s-6.7,11-8.9,19.9C792.3,34.2,789.7,45,783.4,45s-9-10.8-11.8-22.1C769.4,14,766.7,3,762.7,3s-6.6,11-8.8,19.9C751.1,34.2,748.5,45,742.1,45s-8.9-10.8-11.7-22.1C728.2,14,725.5,3,721.5,3s-6.7,11-8.8,19.9C709.9,34.2,707.2,45,700.9,45s-9-10.8-11.8-22.1C687,14,684.3,3,680.3,3s-6.7,11-8.9,19.9C668.6,34.2,666,45,659.7,45s-9-10.8-11.8-22.1C645.7,14,643,3,639.1,3s-6.7,11-8.9,19.9C627.4,34.2,624.8,45,618.5,45s-9-10.8-11.8-22.1C604.5,14,601.8,3,597.8,3s-6.6,11-8.8,19.9C586.2,34.2,583.6,45,577.2,45s-8.9-10.8-11.7-22.1C563.3,14,560.6,3,556.6,3s-6.7,11-8.8,19.9C545,34.2,542.3,45,536,45s-9-10.8-11.8-22.1C522.1,14,519.4,3,515.4,3s-6.7,11-8.9,19.9C503.7,34.2,501.1,45,494.8,45s-9-10.8-11.8-22.1C480.8,14,478.1,3,474.2,3s-6.7,11-8.9,19.9C462.5,34.2,459.9,45,453.5,45s-8.9-10.8-11.7-22.1C439.6,14,436.9,3,432.9,3s-6.7,11-8.8,19.9C421.3,34.2,418.6,45,412.3,45s-9-10.8-11.8-22.1C398.4,14,395.7,3,391.7,3s-6.7,11-8.9,19.9C380,34.2,377.4,45,371.1,45s-9-10.8-11.8-22.1C357.1,14,354.4,3,350.5,3s-6.7,11-8.9,19.9C338.8,34.2,336.2,45,329.8,45s-8.9-10.8-11.7-22.1C315.9,14,313.2,3,309.2,3s-6.6,11-8.8,19.9C297.6,34.2,295,45,288.6,45s-9-10.8-11.7-22.1C274.7,14,272,3,268,3s-6.7,11-8.8,19.9C256.4,34.2,253.7,45,247.4,45s-9-10.8-11.8-22.1C233.5,14,230.8,3,226.8,3s-6.7,11-8.9,19.9C215.1,34.2,212.5,45,206.2,45s-9-10.8-11.8-22.1C192.2,14,189.5,3,185.5,3s-6.6,11-8.8,19.9C173.9,34.2,171.3,45,164.9,45S156,34.2,153.2,22.9C151,14,148.3,3,144.3,3s-6.7,11-8.8,19.9C132.7,34.2,130,45,123.7,45s-9-10.8-11.8-22.1C109.8,14,107.1,3,103.1,3s-6.7,11-8.9,19.9C91.4,34.2,88.8,45,82.5,45s-9-10.8-11.8-22.1C68.5,14,65.8,3,61.8,3S55.2,14,53,22.9C50.2,34.2,47.6,45,41.2,45S32.3,34.2,29.5,22.9C27.3,14,24.6,3,20.6,3s-6.7,11-8.8,19.9C9,34.2,6.3,45,0,45"/></svg>