<svg id="Layer_1" data-name="Layer 1" xmlns="http://www.w3.org/2000/svg" xmlns:xlink="http://www.w3.org/1999/xlink" viewBox="0 0 20.4 21.4"><defs><style>.cls-1,.cls-4{fill:none;}.cls-2{clip-path:url(#clip-path);}.cls-3{clip-path:url(#clip-path-2);}.cls-4{stroke:#000;stroke-miterlimit:10;stroke-width:3px;}.cls-5{clip-path:url(#clip-path-3);}</style><clipPath id="clip-path"><path class="cls-1" d="M-1009.6-2183.7a16.2,16.2,0,0,0-14.3,8.6,16.2,16.2,0,0,0-14.3-8.6,16.1,16.1,0,0,0-16.2,16v29h3.6v-29a12.6,12.6,0,0,1,10.7-12.3v25.3a16.2,16.2,0,0,0,16.2,16,16.2,16.2,0,0,0,16.2-16V-2180a12.5,12.5,0,0,1,10.6,12.3v29h3.6v-29A16.2,16.2,0,0,0-1009.6-2183.7Zm-15.8,42a12.7,12.7,0,0,1-11-12.4v-25.6a12.7,12.7,0,0,1,11,12.4Zm14-12.4a12.7,12.7,0,0,1-11,12.4v-25.6a12.7,12.7,0,0,1,11-12.4Z"/></clipPath><clipPath id="clip-path-2"><path class="cls-1" d="M-1027.6-3308.7a16.2,16.2,0,0,0-14.3,8.6,16.2,16.2,0,0,0-14.3-8.6,16.1,16.1,0,0,0-16.2,16v29h3.6v-29a12.6,12.6,0,0,1,10.7-12.3v25.3a16.2,16.2,0,0,0,16.2,16,16.2,16.2,0,0,0,16.2-16V-3305a12.5,12.5,0,0,1,10.6,12.3v29h3.6v-29A16.2,16.2,0,0,0-1027.6-3308.7Zm-15.8,42a12.7,12.7,0,0,1-11-12.4v-25.6a12.7,12.7,0,0,1,11,12.4Zm14-12.4a12.7,12.7,0,0,1-11,12.4v-25.6a12.7,12.7,0,0,1,11-12.4Z"/></clipPath><clipPath id="clip-path-3"><path class="cls-1" d="M-1021.6-1061.6a16.2,16.2,0,0,0-14.3,8.6,16.2,16.2,0,0,0-14.3-8.6,16.1,16.1,0,0,0-16.2,16v29h3.6v-29a12.4,12.4,0,0,1,10.7-12.2v25.2a16.2,16.2,0,0,0,16.2,16,16.2,16.2,0,0,0,16.2-16v-25.2a12.3,12.3,0,0,1,10.6,12.2v27.2c0,.1,0,.1.1.2v1.6h3.6v-29A16.2,16.2,0,0,0-1021.6-1061.6Zm-15.8,42a12.7,12.7,0,0,1-11-12.4v-25.6a12.7,12.7,0,0,1,11,12.4Zm14-12.4a12.7,12.7,0,0,1-11,12.4v-25.6a12.7,12.7,0,0,1,11-12.4Z"/></clipPath></defs><title>x</title><polyline class="cls-4" points="19.3 1 10.2 10.7 19.3 20.4"/><polyline class="cls-4" points="1.1 1 10.2 10.7 1.1 20.4"/></svg>